<?xml version="1.0" encoding="UTF-8"?>
<svg id="Layer_2" data-name="Layer 2" xmlns="http://www.w3.org/2000/svg" xmlns:xlink="http://www.w3.org/1999/xlink" viewBox="0 0 100.13 102.15">
  <defs>
    <style>
      .cls-1 {
        fill: #fff;
      }

      .cls-1, .cls-2, .cls-3 {
        fill-rule: evenodd;
      }

      .cls-2 {
        fill: url(#Sfumatura_senza_nome_79);
      }

      .cls-3 {
        fill: url(#linear-gradient);
      }
    </style>
    <linearGradient id="linear-gradient" x1="24.93" y1="51.08" x2="73.95" y2="51.08" gradientUnits="userSpaceOnUse">
      <stop offset="0" stop-color="#1295d4"/>
      <stop offset="1" stop-color="#7ec443"/>
    </linearGradient>
    <linearGradient id="Sfumatura_senza_nome_79" data-name="Sfumatura senza nome 79" x1="61.35" y1="69.12" x2="78.45" y2="69.12" gradientUnits="userSpaceOnUse">
      <stop offset="0" stop-color="#700877"/>
      <stop offset="1" stop-color="#ff2759"/>
    </linearGradient>
  </defs>
  <g id="Layer_1-2" data-name="Layer 1">
    <path class="cls-1" d="M77.67,0H22.46C10.06,0,0,10.25,0,22.91v56.33c0,12.65,10.06,22.91,22.46,22.91h55.21c12.41,0,22.46-10.26,22.46-22.91V22.91c0-12.66-10.05-22.91-22.46-22.91Z"/>
    <g>
      <path class="cls-3" d="M71.56,27.21h0c.76.82,1.34,1.78,1.74,2.79l.02.05.03.09c.38,1.02.59,2.13.59,3.29h0c0,1.16-.21,2.27-.59,3.29l-.04.1-.02.04c-.4,1.02-.98,1.97-1.74,2.79l-32.71,35.3c-3.17,3.42-8.36,3.42-11.54,0h0c-3.17-3.42-3.17-9.03,0-12.45l18.78-20.27h-12.95c-4.49,0-8.16-3.96-8.16-8.8h0c0-4.84,3.67-8.8,8.16-8.8h32.64c1.08,0,2.11.23,3.05.64l.07.03.06.03c.94.43,1.82,1.05,2.58,1.87"/>
      <path class="cls-2" d="M78.45,69.11c0,4.61-3.83,8.34-8.55,8.34s-8.55-3.73-8.55-8.34,3.83-8.33,8.55-8.33,8.55,3.73,8.55,8.33Z"/>
    </g>
  </g>
</svg>